<svg xmlns="http://www.w3.org/2000/svg" preserveAspectRatio="xMidYMid" width="20" height="20" viewBox="0 0 20 20"><defs><style>.cls-1{fill:#fff;fill-rule:evenodd}</style></defs><path d="M15.854 19.986H4.146a4.16 4.16 0 0 1-4.16-4.16V4.175A4.16 4.16 0 0 1 4.145.013h11.708a4.16 4.16 0 0 1 4.16 4.16v11.65a4.16 4.16 0 0 1-4.16 4.162zM18.1 4.6a2.7 2.7 0 0 0-2.7-2.7H4.6a2.7 2.7 0 0 0-2.7 2.7v10.8a2.7 2.7 0 0 0 2.7 2.7h10.8a2.7 2.7 0 0 0 2.7-2.7V4.6zm-7.66 8.288l-1.765 1.765v-.002l-.003.003-1.765-1.765v-.002l-3.07-3.07L5.605 8.05l3.07 3.07 5.93-5.93 1.765 1.766-5.93 5.93v.002z" class="cls-1"/></svg>