<svg xmlns="http://www.w3.org/2000/svg" preserveAspectRatio="xMidYMid" width="31.376" height="31.41" viewBox="0 0 31.376 31.41"><defs><style>.cls-1{fill:#fff;opacity:.8;fill-rule:evenodd}</style></defs><path d="M15.677 31.39c-8.666 0-15.69-7.024-15.69-15.69C-.014 7.032 7.01.007 15.676.007S31.37 7.033 31.37 15.698c0 8.668-7.027 15.693-15.693 15.693zm8.017-21.828c0-.963-.782-1.745-1.745-1.745H9.62c-.962 0-1.744.782-1.744 1.745v12.31c0 .965.78 1.746 1.745 1.746h12.33c.962 0 1.744-.78 1.744-1.745V9.563zm-2.322 3.12h-1.864a.612.612 0 0 1-.612-.61v-1.865a.61.61 0 0 1 .612-.61h1.864a.61.61 0 0 1 .612.61v1.864a.612.612 0 0 1-.612.613zM15.81 18.59a2.838 2.838 0 0 1 0-5.678c1.568 0 3.066 1.144 3.066 2.838 0 1.694-1.498 2.84-3.066 2.84zm0 2.086a4.922 4.922 0 0 0 4.764-6.16c.883.003 1.38 0 1.38 0v6.786a.612.612 0 0 1-.612.612H10.277a.612.612 0 0 1-.612-.612v-6.785h1.38a4.92 4.92 0 0 0 4.764 6.16z" class="cls-1"/></svg>