<svg xmlns="http://www.w3.org/2000/svg" preserveAspectRatio="xMidYMid" width="20" height="20" viewBox="0 0 20 20"><defs><style>.cls-1{fill:#fff;fill-rule:evenodd}</style></defs><path d="M15.854 19.986H4.146a4.16 4.16 0 0 1-4.16-4.16V4.173a4.16 4.16 0 0 1 4.16-4.16h11.708a4.16 4.16 0 0 1 4.16 4.16v11.65a4.16 4.16 0 0 1-4.16 4.162zM19 4a3 3 0 0 0-3-3H4a3 3 0 0 0-3 3v12a3 3 0 0 0 3 3h12a3 3 0 0 0 3-3V4zm-8.56 8.887l-1.765 1.766v-.002l-.003.003-1.765-1.766-3.068-3.07L5.603 8.05l3.07 3.07 5.93-5.93 1.765 1.765-5.93 5.93v.002z" class="cls-1"/></svg>