<svg xmlns="http://www.w3.org/2000/svg" preserveAspectRatio="xMidYMid" width="31.375" height="31.41" viewBox="0 0 31.375 31.41"><defs><style>.cls-1{fill:#fff;opacity:.8;fill-rule:evenodd}</style></defs><path d="M15.677 31.39C7.01 31.39-.015 24.367-.015 15.7-.015 7.032 7.01.007 15.677.007c8.666 0 15.69 7.025 15.69 15.69 0 8.668-7.024 15.693-15.69 15.693zm5.21-15.333c-.504-.546-1.178-.905-2.016-1.082v-.072a2.935 2.935 0 0 0 1.372-1.144c.333-.518.5-1.107.5-1.77 0-.575-.123-1.08-.363-1.52-.24-.435-.606-.788-1.092-1.05a4.305 4.305 0 0 0-1.446-.476c-.514-.08-1.272-.116-2.27-.116H10.77v13.597h5.44c.946 0 1.722-.085 2.333-.256a4.792 4.792 0 0 0 1.686-.858 3.64 3.64 0 0 0 1.03-1.268c.257-.513.384-1.107.384-1.784 0-.923-.252-1.657-.757-2.203zm-3.653 3.61a2.88 2.88 0 0 1-1.04.245c-.34.013-.955.02-1.843.02h-.183v-3.405h.63c.607 0 1.094.003 1.456.013.36.008.647.052.853.134.34.12.596.3.767.54.172.235.255.563.255.983 0 .328-.07.622-.214.88-.144.26-.368.454-.68.59zm-.682-5.677c-.25.115-.493.178-.727.19-.234.013-.645.02-1.228.02h-.43V11.32h.237c.608 0 1.066.003 1.374.012.31.01.574.063.798.162.24.103.415.272.527.502.112.23.17.456.17.677 0 .295-.055.558-.158.786-.102.224-.292.402-.563.53z" class="cls-1"/></svg>