<svg xmlns="http://www.w3.org/2000/svg" preserveAspectRatio="xMidYMid" width="32" height="37" viewBox="0 0 32 37"><defs><style>.cls-1{fill:#fff;filter:url(#drop-shadow-1);fill-rule:evenodd}</style><filter id="drop-shadow-1" filterUnits="userSpaceOnUse"><feOffset dx=".5" dy=".866" in="SourceAlpha"/><feGaussianBlur stdDeviation="1.732" result="dropBlur"/><feFlood flood-color="#313235" flood-opacity=".5"/><feComposite operator="in" in2="dropBlur" result="dropShadowComp"/><feComposite in="SourceGraphic" result="shadowed"/></filter></defs><path d="M2.88 17.07h3.68V2.57h8.89c3.91 0 6.025.182 7.253.5 3.636.955 6.41 4.227 6.41 9.318 0 5.818-3.73 8.863-7.092 9.59-1.544.318-3.343.455-6.252.455h-3.04v2.727h15.02v5.364h-15.02v3.91H6.56v-3.91H2.88V25.16h3.68v-2.727H2.88V17.07zm9.85-9.09v9.044h2.356c2.545 0 3.8-.182 4.662-.5 1.636-.59 2.727-2.182 2.727-4.045 0-2.32-1.545-3.91-3.59-4.274-.773-.136-1.89-.227-4.208-.227H12.73z" class="cls-1"/></svg>