<svg xmlns="http://www.w3.org/2000/svg" preserveAspectRatio="xMidYMid" width="47.406" height="47.38" viewBox="0 0 47.406 47.38"><defs><style>.cls-1{fill:#323232;fill-rule:evenodd}</style></defs><path d="M23.714 47.39c-13.09 0-23.7-10.61-23.7-23.7S10.623-.013 23.713-.013s23.702 10.61 23.702 23.7-10.613 23.703-23.702 23.703zm0-45.402c-11.966 0-21.7 9.735-21.7 21.7 0 11.968 9.734 21.703 21.7 21.703s21.702-9.734 21.702-21.7c0-11.967-9.736-21.702-21.702-21.702zm11.817 23.2h-4a1 1 0 0 1 0-2h4a1 1 0 0 1 0 2zm0-4h-4a1 1 0 0 1 0-2h4a1 1 0 0 1 0 2zm0-4h-4a1 1 0 0 1 0-2h4a1 1 0 0 1 0 2zm0-4h-4a1 1 0 0 1 0-2h4a1 1 0 0 1 0 2zM23.555 38.524c-3.75 0-6.823-3.04-6.823-6.774 0-1.62.823-3.283 1.823-4.604v-14.84c0-2.73 2.244-4.95 5-4.95 2.757 0 5 2.22 5 4.95v14.91c1 1.284 1.778 2.893 1.778 4.533a6.776 6.776 0 0 1-6.776 6.773zm3.045-10.49V12.306c0-1.626-1.375-2.95-3-2.95-1.627 0-3 1.324-3 2.95V27.97c-1 .884-1.846 2.27-1.846 3.78 0 2.632 2.168 4.773 4.8 4.773 2.633 0 4.8-2.14 4.8-4.774 0-1.48-.755-2.828-1.755-3.716zm-3.114 6.35a2.774 2.774 0 0 1-2.774-2.775c0-1.215.786-2.236 1.873-2.61V12.164a.95.95 0 0 1 1.898 0v16.86a2.77 2.77 0 0 1-.997 5.357z" class="cls-1"/></svg>