<svg xmlns="http://www.w3.org/2000/svg" preserveAspectRatio="xMidYMid" width="47.375" height="47.38" viewBox="0 0 47.375 47.38"><defs><style>.cls-1{fill:#323232;fill-rule:evenodd}</style></defs><path d="M23.687 47.39c-13.09 0-23.7-10.61-23.7-23.7S10.596-.013 23.686-.013s23.702 10.61 23.702 23.7-10.614 23.703-23.703 23.703zm0-45.402c-11.966 0-21.7 9.735-21.7 21.7 0 11.968 9.734 21.703 21.7 21.703s21.702-9.734 21.702-21.7c0-11.967-9.737-21.702-21.703-21.702zm-.062 37.827s-22.24-10.188 0-32.75c22.24 22.562 0 32.75 0 32.75zm-1.042-28.648c-1.305 1.507-2.426 2.98-3.356 4.42l3.356 2.627v-7.047zm0 9.5l-4.4-3.38a22.06 22.06 0 0 0-1.464 3.24l5.863 3.775v-3.636zm0 6.014l-6.452-4.153c-.254 1.123-.402 2.225-.38 3.29l6.833 4.485v-3.62zm0 6l-6.417-4.13c1.106 4.143 4.317 6.926 6.417 8.336V32.68zm2-21.61v7.416l3.63-2.598c-.988-1.564-2.198-3.17-3.63-4.818zm4.644 6.537l-4.623 3.183-.02 3.68 5.98-3.85a21.64 21.64 0 0 0-1.337-3.013zm1.913 5.02l-6.536 4.162-.02 3.68 6.893-4.408c.046-1.112-.078-2.26-.337-3.435zM24.604 32.79l-.02 4.164c2.07-1.367 5.304-4.117 6.463-8.266l-6.443 4.1z" class="cls-1"/></svg>