<svg xmlns="http://www.w3.org/2000/svg" preserveAspectRatio="xMidYMid" width="47.375" height="47.38" viewBox="0 0 47.375 47.38"><defs><style>.cls-1{fill:#323232;fill-rule:evenodd}</style></defs><path d="M23.687 47.392c-13.09 0-23.7-10.613-23.7-23.703S10.596-.013 23.686-.013s23.702 10.61 23.702 23.7-10.614 23.704-23.703 23.704zm0-45.404c-11.966 0-21.7 9.735-21.7 21.7 0 11.968 9.734 21.703 21.7 21.703s21.702-9.734 21.702-21.7c0-11.967-9.737-21.702-21.703-21.702zm7.657 29.2H15.812a.81.81 0 0 1-.81-.808V15.7c0-2.29.892-4.444 2.512-6.063a8.52 8.52 0 0 1 6.064-2.512c2.29 0 4.444.892 6.063 2.512a8.517 8.517 0 0 1 2.513 6.064v14.68a.81.81 0 0 1-.81.81zm-.81-11.35c-.633-.213-1.03-.655-1.344-1.003-.37-.41-.55-.593-.946-.595-.023.013-.137.092-.31.427-.172.336-.332.788-.487 1.226-.204.575-.415 1.17-.697 1.648-.425.72-.97 1.083-1.62 1.083-.65 0-1.194-.364-1.618-1.082-.283-.478-.493-1.072-.697-1.647-.155-.438-.315-.89-.488-1.226-.173-.334-.285-.414-.31-.427-.394.002-.575.185-.944.595-.43.477-1.018 1.13-2.155 1.13-1.137 0-1.725-.653-2.155-1.13a9.523 9.523 0 0 0-.142-.156v10.89h13.915v-9.73zm-4.907 18.313a2.05 2.05 0 0 1-4.098 0v-6.163h4.097v6.164z" class="cls-1"/></svg>