<svg xmlns="http://www.w3.org/2000/svg" preserveAspectRatio="xMidYMid" width="47.406" height="47.38" viewBox="0 0 47.406 47.38"><defs><style>.cls-1{fill:#323232;fill-rule:evenodd}</style></defs><path d="M39.11 23.187c-.26.39-.88 1.047-2.128 1.047-.89 0-2.2-.38-3.256-.84.23 2.52-.273 5.392-1.576 8.343.472.954.672 2 .517 3.08-.488 3.385-4.283 5.238-8.524 5.238-4.242 0-8.018-1.853-8.48-5.24a5.163 5.163 0 0 1 .33-2.616c-1.443-3.082-2.012-6.092-1.786-8.726-1.02.423-2.228.76-3.065.76-1.248 0-1.868-.657-2.127-1.047-.427-.646-.485-1.452-.162-2.214.812-1.912 3.593-2.743 4.75-3.012l.096-.02c-1.4-2.902-.724-7.602-.198-9.192L16.56 9c.055 1.005.765 2.882 3.435 5.01l1.585 1.093c.75-.14 1.537-.237 2.397-.237.818 0 1.57.09 2.29.217l1.69-1.165c2.67-2.13 3.38-4.007 3.436-5.01l3.058-.254c.53 1.6 1.208 6.342-.223 9.24l.294.067c1.158.27 3.938 1.1 4.75 3.013.324.762.266 1.568-.16 2.214zM14.04 19.91s-2.86.663-3.362 1.845c-.502 1.183 3.155-.13 3.835-.692-.326-.474-.355-.59-.473-1.153zm3.297.068c-1.752 2.755-1.578 7.007.467 11.373l.367.782-.317.803a3.175 3.175 0 0 0-.208 1.61c.33 2.412 3.6 3.51 6.498 3.51 2.907 0 6.196-1.103 6.545-3.524.09-.636-.02-1.278-.33-1.904l-.416-.84.378-.857c1.878-4.252 1.97-8.372.244-11.02-1.297-1.992-3.575-3.044-6.587-3.044-3.05 0-5.346 1.076-6.64 3.112zm20.093 1.777c-.503-1.183-3.36-1.846-3.36-1.846-.12.56-.15.68-.475 1.152.68.562 4.338 1.875 3.835.693zm-18.57-6.097s-3.595-2.477-3.735-5.015c-.404 2.175-.584 5.613.705 6.983.644-.323 1.66-1.405 3.03-1.968zm10.232-.094s3.595-2.476 3.736-5.015c.403 2.174.584 5.613-.705 6.982-.645-.323-1.66-1.405-3.03-1.968zM23.714-.012c13.09 0 23.702 10.61 23.702 23.7S36.803 47.393 23.714 47.393c-13.09 0-23.7-10.613-23.7-23.703S10.623-.013 23.713-.013zm0 45.403c-11.966 0-21.7-9.734-21.7-21.7 0-11.967 9.734-21.702 21.7-21.702s21.702 9.735 21.702 21.7c0 11.968-9.736 21.703-21.702 21.703z" class="cls-1"/></svg>