<svg xmlns="http://www.w3.org/2000/svg" preserveAspectRatio="xMidYMid" width="31.375" height="31.4" viewBox="0 0 31.375 31.4"><defs><style>.cls-1{fill:#fff;opacity:.8;fill-rule:evenodd}</style></defs><path d="M15.677 31.39C7.01 31.39-.015 24.362-.015 15.696S7.01.005 15.677.005 31.37 7.03 31.37 15.697 24.342 31.39 15.676 31.39zm8.647-22.016a7.294 7.294 0 0 1-2.313.884 3.643 3.643 0 0 0-6.206 3.322 10.343 10.343 0 0 1-7.507-3.806 3.632 3.632 0 0 0-.493 1.832 3.64 3.64 0 0 0 1.62 3.03 3.636 3.636 0 0 1-1.65-.454v.045a3.646 3.646 0 0 0 2.922 3.572 3.65 3.65 0 0 1-1.645.06 3.646 3.646 0 0 0 3.404 2.53A7.303 7.303 0 0 1 7.06 21.9a10.315 10.315 0 0 0 5.585 1.635c6.7 0 10.363-5.55 10.363-10.363 0-.158-.004-.315-.01-.47a7.422 7.422 0 0 0 1.817-1.886 7.308 7.308 0 0 1-2.092.573 3.655 3.655 0 0 0 1.6-2.016z" class="cls-1"/></svg>