<svg xmlns="http://www.w3.org/2000/svg" preserveAspectRatio="xMidYMid" width="107.622" height="36.69" viewBox="0 0 107.622 36.69"><defs><style>.cls-1{fill:#fff;fill-rule:evenodd}</style></defs><path d="M103.727 29.19c-.9 2.16-2.074 2.885-3.336 2.885a4.67 4.67 0 0 1-1.088-.138v-1.572c.277.086.57.12.847.12.898 0 1.572-.64 2.056-1.935l.173-.415-3.942-8.365h1.97l2.8 6.256 2.472-6.256h1.935l-3.888 9.42zm-8.054-6.257c0-1.072-.64-1.745-1.642-1.745-.915 0-1.624.604-2.056 1.123.018.19.035.38.035.57v5.186h-1.85v-5.133c0-1.072-.64-1.745-1.642-1.745-1.002 0-1.763.725-2.195 1.278v5.6h-1.85V19.77h1.643v1.037c.45-.5 1.417-1.26 2.765-1.26 1.245 0 2.11.517 2.593 1.33.726-.726 1.694-1.33 2.904-1.33 2.194 0 3.145 1.623 3.145 3.334v5.186h-1.85v-5.133zM76.35 24.61c.21 1.486 1.66 2.108 3.18 2.108a6.07 6.07 0 0 0 2.628-.588v1.59c-.76.364-1.815.57-2.973.57-2.54 0-4.7-1.45-4.7-4.372 0-3.007 2.28-4.372 4.2-4.372 3.3 0 4.44 2.66 3.905 5.063h-6.24zm2.42-3.526c-1.244 0-2.367.743-2.436 2.143h4.597c.105-.726-.345-2.143-2.16-2.143zm-7.742 5.67c-.64.81-1.625 1.537-3.18 1.537-2.506 0-4.113-1.987-4.113-4.372s1.607-4.372 4.113-4.372c1.452 0 2.42.64 2.99 1.296v-4.874h1.85v12.098h-1.66v-1.313zm-.208-3.856c-.397-.898-1.347-1.728-2.644-1.728-1.486 0-2.575 1.124-2.575 2.748s1.09 2.748 2.576 2.748c1.297 0 2.247-.83 2.644-1.746v-2.022zm.018-21.455h1.85V13.54h-1.85V1.444zm-4.555 6.965c0-1.07-.64-1.745-1.642-1.745-.914 0-1.623.605-2.055 1.123.017.19.034.38.034.57v5.185h-1.85V8.41c0-1.07-.64-1.745-1.642-1.745-1.002 0-1.763.725-2.195 1.28v5.598h-1.85V5.247h1.643v1.036c.45-.5 1.417-1.26 2.765-1.26 1.246 0 2.11.517 2.593 1.33.726-.726 1.694-1.33 2.904-1.33 2.195 0 3.146 1.623 3.146 3.334v5.185h-1.85V8.41zM57.79 21.153c-1.228 0-2.247.31-2.99.64v-1.694c.656-.226 1.85-.554 3.18-.554 2.35 0 3.836 1.123 3.836 3.63v2.972c0 .466.277.605.605.605.19 0 .38-.053.554-.104v1.33c-.346.138-.76.207-1.175.207-.762 0-1.366-.294-1.66-.968-.813.656-1.832 1.07-3.128 1.07-1.504 0-2.904-.83-2.904-2.54 0-2.125 1.97-2.782 3.7-2.782.707 0 1.502.103 2.16.242v-.294c0-1.037-.76-1.763-2.18-1.763zm.38 3.11c-1.055 0-2.16.33-2.16 1.366 0 .81.725 1.226 1.555 1.226.88 0 1.745-.33 2.402-.985v-1.4c-.5-.102-1.21-.206-1.797-.206zM47.878 11.02V6.87h-1.486V5.246h1.486V2.74l1.832-.45v2.956h3.007V6.87H49.71v3.802c0 1.09.5 1.452 1.573 1.452a4.46 4.46 0 0 0 1.676-.328v1.59c-.623.224-1.418.362-2.23.362-1.608 0-2.852-.794-2.852-2.73zm2.428 8.528c.933 0 1.832.207 2.558.64v1.693c-.605-.433-1.452-.692-2.3-.692-1.468 0-2.954.777-2.954 2.73 0 1.884 1.434 2.73 2.92 2.73.882 0 1.764-.258 2.42-.638v1.71c-.795.38-1.693.57-2.748.57-2.212 0-4.476-1.347-4.476-4.302 0-3.094 2.368-4.442 4.58-4.442zM42.13 27.22c-.81.656-1.83 1.07-3.127 1.07-1.503 0-2.903-.83-2.903-2.54 0-2.125 1.97-2.782 3.698-2.782.71 0 1.504.103 2.16.242v-.294c0-1.037-.76-1.763-2.177-1.763-1.226 0-2.246.31-2.99.64v-1.694c.658-.226 1.85-.554 3.18-.554 2.352 0 3.838 1.123 3.838 3.63v2.972c0 .466.276.605.605.605.19 0 .38-.053.553-.104v1.33c-.346.138-.76.207-1.175.207-.76 0-1.365-.294-1.66-.968zm-.17-2.75c-.503-.102-1.21-.206-1.8-.206-1.053 0-2.16.328-2.16 1.365 0 .81.727 1.226 1.556 1.226.882 0 1.746-.33 2.403-.985v-1.4zm.837-15.82c0-1.348-.83-1.987-1.936-1.987-1.053 0-1.848.708-2.315 1.382v5.496h-1.85V1.444h1.85V6.16a3.778 3.778 0 0 1 2.68-1.14c2.09 0 3.42 1.418 3.42 3.388v5.133h-1.848V8.65zM0 28.067V1.52L14.482 0l.152.017L28.967 1.52v26.547l-14.484 8.618L0 28.067zM27.07 3.227l-12.59-1.322-12.588 1.32v9.96L14.412 5.73h.002l12.658 7.463V3.226zm-12.626 15.01l3.19 1.88.024-.015.997-.667-4.224-2.51.013-1.314 5.35 3.184.92-.542.14-.083.058-.035-6.48-3.854.012-1.31 7.582 4.51 1.59-.937 3.444-2.03-12.65-7.372-12.49 7.508 12.472 7.414 2.133-1.28-2.094-1.233.013-1.313zm12.626-2.312l-3.883 2.32v4.288l.01-.006v1.32l-8.717 5.214-8.633-5.19.012-1.31 8.63 5.133-.02-1.388-8.634-5.19.013-1.312 8.6 5.118-.02-1.35-12.536-7.462v10.88l12.59 7.492 12.588-7.49V15.924z" class="cls-1"/></svg>